<svg width="186" height="186" viewBox="0 0 186 186" fill="none" xmlns="http://www.w3.org/2000/svg">
<rect width="186" height="186" fill="#EDEDED" fill-opacity="0.32"/>
<rect x="1" y="1" width="184" height="184" stroke="black" stroke-opacity="0.08" stroke-width="2" stroke-dasharray="10 10"/>
<path d="M5.98828 5.76074C5.98828 5.31413 5.81966 4.95866 5.48242 4.69434C5.14518 4.43001 4.68717 4.29785 4.1084 4.29785C3.61165 4.29785 3.19694 4.43001 2.86426 4.69434C2.53158 4.9541 2.36523 5.29134 2.36523 5.70605H0.642578C0.642578 5.16374 0.792969 4.68066 1.09375 4.25684C1.39453 3.83301 1.81152 3.50488 2.34473 3.27246C2.87793 3.03548 3.46582 2.91699 4.1084 2.91699C5.24772 2.91699 6.13184 3.16536 6.76074 3.66211C7.39421 4.15885 7.71094 4.85384 7.71094 5.74707C7.71094 6.19824 7.57422 6.61296 7.30078 6.99121C7.02734 7.36947 6.64453 7.66797 6.15234 7.88672C6.70833 8.07812 7.13216 8.36979 7.42383 8.76172C7.72005 9.14909 7.86816 9.63216 7.86816 10.2109C7.86816 11.1042 7.52637 11.8151 6.84277 12.3438C6.15918 12.8678 5.24772 13.1299 4.1084 13.1299C3.40658 13.1299 2.77083 13.0046 2.20117 12.7539C1.63607 12.5033 1.20996 12.1615 0.922852 11.7285C0.640299 11.2956 0.499023 10.7988 0.499023 10.2383H2.22168C2.22168 10.6667 2.39941 11.029 2.75488 11.3252C3.11035 11.6169 3.56152 11.7627 4.1084 11.7627C4.71908 11.7627 5.20898 11.6191 5.57812 11.332C5.95182 11.0449 6.13867 10.6712 6.13867 10.2109C6.13867 9.65039 5.97461 9.24479 5.64648 8.99414C5.32292 8.73893 4.84668 8.61133 4.21777 8.61133H3.04883V7.24414H4.15625C5.3776 7.24414 5.98828 6.74967 5.98828 5.76074ZM15.0459 10.6826H11.1904L10.3838 13H8.58594L12.3457 3.04688H13.8975L17.6641 13H15.8594L15.0459 10.6826ZM11.6758 9.28809H14.5605L13.1182 5.15918L11.6758 9.28809ZM25.1631 4.44141H20.5693V13H18.8467V3.04688H25.1631V4.44141ZM28.335 9.30176V13H26.6055V3.04688H30.4131C31.5251 3.04688 32.4069 3.33626 33.0586 3.91504C33.7148 4.49382 34.043 5.25944 34.043 6.21191C34.043 7.18717 33.7217 7.94596 33.0791 8.48828C32.4411 9.0306 31.5456 9.30176 30.3926 9.30176H28.335ZM28.335 7.91406H30.4131C31.0283 7.91406 31.4977 7.77051 31.8213 7.4834C32.1449 7.19173 32.3066 6.77246 32.3066 6.22559C32.3066 5.68783 32.1426 5.25944 31.8145 4.94043C31.4863 4.61686 31.0352 4.45052 30.4609 4.44141H28.335V7.91406ZM39.1426 8.24902L41.1387 3.04688H43.0596L39.5938 11.3047L39.2793 11.9268C38.8236 12.738 38.0853 13.1436 37.0645 13.1436L36.3535 13.1025L36.3672 11.7354C36.4766 11.7536 36.6702 11.7627 36.9482 11.7627C37.4404 11.7627 37.7868 11.5531 37.9873 11.1338L38.3428 10.293L34.9385 3.04688H36.8252L39.1426 8.24902ZM49.3555 5.76074C49.3555 5.31413 49.1868 4.95866 48.8496 4.69434C48.5124 4.43001 48.0544 4.29785 47.4756 4.29785C46.9788 4.29785 46.5641 4.43001 46.2314 4.69434C45.8988 4.9541 45.7324 5.29134 45.7324 5.70605H44.0098C44.0098 5.16374 44.1602 4.68066 44.4609 4.25684C44.7617 3.83301 45.1787 3.50488 45.7119 3.27246C46.2451 3.03548 46.833 2.91699 47.4756 2.91699C48.6149 2.91699 49.499 3.16536 50.1279 3.66211C50.7614 4.15885 51.0781 4.85384 51.0781 5.74707C51.0781 6.19824 50.9414 6.61296 50.668 6.99121C50.3945 7.36947 50.0117 7.66797 49.5195 7.88672C50.0755 8.07812 50.4993 8.36979 50.791 8.76172C51.0872 9.14909 51.2354 9.63216 51.2354 10.2109C51.2354 11.1042 50.8936 11.8151 50.21 12.3438C49.5264 12.8678 48.6149 13.1299 47.4756 13.1299C46.7738 13.1299 46.138 13.0046 45.5684 12.7539C45.0033 12.5033 44.5771 12.1615 44.29 11.7285C44.0075 11.2956 43.8662 10.7988 43.8662 10.2383H45.5889C45.5889 10.6667 45.7666 11.029 46.1221 11.3252C46.4775 11.6169 46.9287 11.7627 47.4756 11.7627C48.0863 11.7627 48.5762 11.6191 48.9453 11.332C49.319 11.0449 49.5059 10.6712 49.5059 10.2109C49.5059 9.65039 49.3418 9.24479 49.0137 8.99414C48.6901 8.73893 48.2139 8.61133 47.585 8.61133H46.416V7.24414H47.5234C48.7448 7.24414 49.3555 6.74967 49.3555 5.76074ZM58.9395 3.04688H60.6689V13H58.9395V5.91113L54.5713 13H52.8418V3.04688H54.5713V10.1426L58.9395 3.04688ZM69.7266 4.44141H66.623V13H64.9072V4.44141H61.8311V3.04688H69.7266V4.44141ZM72.8506 6.85449H74.8877C75.6169 6.85449 76.2526 6.97982 76.7949 7.23047C77.3372 7.48112 77.7497 7.83659 78.0322 8.29688C78.3148 8.75716 78.4561 9.29036 78.4561 9.89648C78.4561 10.8262 78.1393 11.5736 77.5059 12.1387C76.877 12.7038 76.0179 12.9909 74.9287 13H71.1211V3.04688H72.8506V6.85449ZM72.8506 8.24219V11.6191H74.8809C75.4642 11.6191 75.9176 11.4619 76.2412 11.1475C76.5693 10.8285 76.7334 10.4069 76.7334 9.88281C76.7334 9.38151 76.5739 8.98503 76.2549 8.69336C75.9359 8.40169 75.4938 8.2513 74.9287 8.24219H72.8506Z" transform="translate(53.5 108)" fill="black" fill-opacity="0.16"/>
<g opacity="0.16">
<path d="M5.33333 10.6667C8.27885 10.6667 10.6667 8.27885 10.6667 5.33333C10.6667 2.38781 8.27885 0 5.33333 0C2.38781 0 0 2.38781 0 5.33333C0 8.27885 2.38781 10.6667 5.33333 10.6667Z" transform="translate(87.668 75.6667)" fill="black"/>
<path d="M11.6667 0L8.61667 3.33333H3.33333C1.5 3.33333 0 4.83333 0 6.66667V26.6667C0 28.5 1.5 30 3.33333 30H30C31.8333 30 33.3333 28.5 33.3333 26.6667V6.66667C33.3333 4.83333 31.8333 3.33333 30 3.33333H24.7167L21.6667 0H11.6667ZM16.6667 25C12.0667 25 8.33333 21.2667 8.33333 16.6667C8.33333 12.0667 12.0667 8.33333 16.6667 8.33333C21.2667 8.33333 25 12.0667 25 16.6667C25 21.2667 21.2667 25 16.6667 25Z" transform="translate(76.333 64.3334)" fill="black"/>
</g>
</svg>
